<svg width="391" height="80" viewBox="0 0 391 80" fill="none" xmlns="http://www.w3.org/2000/svg">
<path d="M71.3335 0H8.66656C3.86249 0 0 3.87319 0 8.66656V71.3334C0 76.1161 3.87319 80 8.66656 80H71.3335C76.1162 80 80.0001 76.1054 80.0001 71.3334V8.66656C80.0001 3.86249 76.1055 0 71.3335 0ZM68.1129 47.7518C64.7747 59.7781 53.8826 68.6693 40.8399 68.9582C40.6367 68.9796 40.4227 68.9796 40.198 68.9796C39.9733 68.9796 39.7486 68.9796 39.5346 68.9582C39.3099 68.9582 39.0638 68.9582 38.8284 68.9368H38.7642C29.338 68.466 21.1101 63.5122 16.1562 56.1723C13.0427 51.5502 11.2452 45.9864 11.2452 39.984C11.2452 37.1593 11.6411 34.4309 12.4007 31.8523C12.4863 31.5634 12.7324 31.3816 13.0427 31.3816H23.2928C23.785 31.3816 24.0952 31.8523 23.9133 32.291C23.0039 34.6449 22.4904 37.2449 22.4904 39.984C22.4904 48.7469 27.6903 56.1509 34.891 58.6546C35.5758 58.8792 36.2927 59.0719 37.0202 59.2324C38.0474 59.4357 39.1067 59.5426 40.198 59.5426C42.0383 59.5426 43.8465 59.2323 45.5156 58.6546C48.3189 57.6809 50.8333 55.9476 52.8555 53.6793C54.4604 51.8818 55.7444 49.7205 56.6324 47.3238C56.718 47.0563 56.9641 46.9065 57.253 46.9065H67.4817C67.9311 46.9065 68.2413 47.3239 68.1236 47.7518H68.1129ZM68.1129 35.961H58.0662C57.7559 35.961 57.4884 35.7363 57.4242 35.426C56.6645 31.9166 55.0489 28.7816 52.8234 26.2886C51.4218 24.7051 49.774 23.3997 47.9551 22.4154C47.1741 21.966 46.3502 21.6129 45.5049 21.324C43.8144 20.7462 42.0383 20.436 40.1873 20.436H20.3825C19.7833 20.436 19.4945 19.6977 19.9117 19.2804C24.8014 14.4763 31.403 11.4056 38.7429 11.0525H38.8071C39.0532 11.0311 39.2992 11.0311 39.5132 11.0311C39.7379 11.0097 39.9626 11.0097 40.1766 11.0097C40.3906 11.0097 40.626 11.0097 40.8186 11.0311C54.8884 11.3414 66.4973 21.6557 68.7442 35.1478C68.8084 35.5651 68.4981 35.9503 68.1022 35.9503L68.1129 35.961Z" fill="white"/>
<path d="M229.12 29.9489H238.899C239.241 29.9489 239.52 30.227 239.52 30.5694V38.273C240.996 32.1315 245.254 28.7076 252.455 28.9109C252.787 28.9109 253.065 29.1892 253.065 29.5316V39.0006C253.065 39.343 252.787 39.6211 252.444 39.6211H251.46C244.901 39.6211 239.862 43.9973 239.862 51.305V73.057C239.862 73.3994 239.584 73.6777 239.241 73.6777H229.12C228.777 73.6777 228.499 73.3994 228.499 73.057V30.5694C228.499 30.227 228.777 29.9489 229.12 29.9489Z" fill="white"/>
<path d="M209.627 30.3133V35.417C206 31.1907 200.95 28.5586 195.354 28.5586C184.323 28.5586 175.367 38.7873 175.367 51.4127C175.367 64.0381 184.312 74.2668 195.354 74.2668C200.95 74.2668 206 71.6348 209.627 67.4085V72.7903C209.627 73.1326 209.905 73.4109 210.248 73.4109H220.433C220.776 73.4109 221.054 73.1326 221.054 72.7903V30.3026C221.054 29.9602 220.776 29.6821 220.433 29.6821H210.248C209.905 29.6821 209.627 29.9602 209.627 30.3026V30.3133ZM197.697 64.0916C191.085 64.0916 185.724 58.4102 185.724 51.4127C185.724 44.4152 191.085 38.7338 197.697 38.7338C203.946 38.7338 209.081 43.8054 209.627 50.2786C209.659 50.6531 209.681 51.0275 209.681 51.4127C209.681 51.7979 209.659 52.1724 209.627 52.5469C209.081 59.0201 203.956 64.0916 197.697 64.0916Z" fill="white"/>
<path d="M291.145 74.1566H336.832C337.174 74.1566 337.453 73.8784 337.453 73.536V63.3287C337.453 62.9863 337.174 62.7082 336.832 62.7082H314.556L330.733 43.556L331.129 43.0852C334.254 39.2976 336.19 34.4828 336.329 29.2187C336.329 29.0047 336.34 28.78 336.34 28.5553C336.34 15.9513 326.122 5.72266 313.507 5.72266C302.262 5.72266 292.911 13.8543 291.027 24.5644C290.974 24.8747 291.167 25.1743 291.466 25.2599L301.449 28.1273C301.823 28.2343 302.198 27.9668 302.23 27.5816C302.733 21.5043 308.05 16.7967 314.352 17.2567C319.916 17.6633 324.41 22.1784 324.795 27.7529C324.998 30.7915 324.003 33.5948 322.238 35.7347L322.056 35.938L309.345 50.9921L299.469 62.6867L290.91 72.8191C290.867 72.8726 290.835 72.9476 290.835 73.0225V73.8357C290.835 74.0069 290.974 74.1459 291.145 74.1459V74.1566Z" fill="white"/>
<path d="M383.138 46.9789V6.37443C383.138 6.03205 382.86 5.75391 382.517 5.75391H372.011C371.807 5.75391 371.615 5.8502 371.508 6.02139L343.026 46.9789L337.558 54.8432C337.483 54.9502 337.451 55.0678 337.451 55.1962V56.4801C337.451 56.8225 337.729 57.1008 338.072 57.1008H371.69V73.5352C371.69 73.8775 371.968 74.1557 372.31 74.1557H382.517C382.86 74.1557 383.138 73.8775 383.138 73.5352V57.1008H389.569C389.911 57.1008 390.189 56.8225 390.189 56.4801V47.5996C390.189 47.2572 389.911 46.9789 389.569 46.9789H383.138ZM371.69 46.9789H357.074L371.69 25.9546V46.9789Z" fill="white"/>
<path d="M169.652 48.1486C170.058 48.1486 170.358 48.523 170.251 48.9189C166.356 63.5451 153.014 74.3088 137.168 74.3088C121.322 74.3088 107.306 62.9887 103.807 47.8061C103.229 45.3238 102.93 42.7346 102.93 40.0704C102.93 37.1173 103.304 34.2499 104.01 31.5108C107.809 16.7455 121.215 5.83203 137.179 5.83203C153.142 5.83203 166.217 16.4887 170.197 30.9973C170.304 31.3824 170.005 31.7676 169.598 31.7676H157.165C156.909 31.7676 156.684 31.6071 156.588 31.3717C153.41 23.2187 145.91 17.4945 137.168 17.4945C125.548 17.4945 116.133 27.6055 116.133 40.0811C116.133 52.5567 125.548 62.6677 137.168 62.6677C145.995 62.6677 153.549 56.8366 156.663 48.5659C156.759 48.3305 156.984 48.1593 157.24 48.1593H169.652V48.1486Z" fill="white"/>
<path d="M273.576 74.232C269.981 74.232 267.017 73.7504 264.695 72.7768C262.373 71.8138 260.533 70.5942 259.174 69.1283C257.815 67.6625 256.809 66.2073 256.146 64.7736C255.568 63.5217 255.098 62.088 254.734 60.4724C254.648 60.0872 254.937 59.7127 255.333 59.7127H264.577C264.845 59.7127 265.07 59.884 265.166 60.1407C265.53 61.1679 265.968 62.0452 266.482 62.7514C267.06 63.5538 267.958 64.2601 269.178 64.87C270.398 65.4798 272.003 65.7794 273.993 65.7794C276.368 65.7794 278.091 65.2658 279.139 64.2493C280.188 63.2222 280.712 62.0774 280.712 60.8041C280.712 59.5309 280.252 58.6 279.343 57.8618C278.433 57.1128 277.085 56.5457 275.32 56.1606L269.264 54.9194C266.835 54.4165 264.567 53.6889 262.459 52.7152C260.351 51.7523 258.639 50.4256 257.312 48.7351C255.986 47.0445 255.322 44.8726 255.322 42.2191C255.322 38.2924 256.82 35.0398 259.805 32.4719C262.791 29.8933 266.856 28.6094 272.003 28.6094C275.266 28.6094 277.962 29.048 280.092 29.9361C282.221 30.8242 283.933 31.9262 285.238 33.2529C286.533 34.5797 287.506 35.9064 288.138 37.2331C288.683 38.3672 289.133 39.6941 289.496 41.2027C289.593 41.5879 289.293 41.9623 288.897 41.9623H279.985C279.728 41.9623 279.492 41.8018 279.407 41.5664C279.097 40.6998 278.711 39.9722 278.251 39.3944C277.727 38.731 276.946 38.1318 275.929 37.6076C274.902 37.0833 273.533 36.8158 271.821 36.8158C269.499 36.8158 267.851 37.3187 266.878 38.3138C265.915 39.3088 265.423 40.3574 265.423 41.4702C265.423 42.6899 265.947 43.6314 266.995 44.2947C268.044 44.9581 269.403 45.461 271.061 45.7927L276.785 47.0339C280.883 47.8684 284.243 49.3022 286.864 51.3458C289.497 53.3894 290.802 56.3531 290.802 60.2263C290.802 62.8263 290.128 65.1909 288.769 67.3201C287.41 69.4493 285.452 71.1398 282.873 72.3809C280.295 73.622 277.192 74.2427 273.544 74.2427L273.576 74.232Z" fill="white"/>
</svg>
